<mxfile host="Electron" modified="2023-12-16T10:40:08.797Z" agent="Mozilla/5.0 (X11; Linux x86_64) AppleWebKit/537.36 (KHTML, like Gecko) draw.io/22.1.2 Chrome/114.0.5735.289 Electron/25.9.4 Safari/537.36" etag="XhrJaW0-2-lzz09dDau5" version="22.1.2" type="device">
  <diagram name="Page-1" id="r6Vh_7da8Vh1u9CmCt3k">
    <mxGraphModel dx="1687" dy="1022" grid="1" gridSize="10" guides="1" tooltips="1" connect="1" arrows="1" fold="1" page="1" pageScale="1" pageWidth="850" pageHeight="1100" math="0" shadow="0">
      <root>
        <mxCell id="0" />
        <mxCell id="1" parent="0" />
        <mxCell id="GyxaVA42h4HH-SpJSggP-10" value="Application" style="swimlane;whiteSpace=wrap;html=1;" vertex="1" parent="1">
          <mxGeometry x="10" y="8" width="830" height="510" as="geometry" />
        </mxCell>
        <mxCell id="GyxaVA42h4HH-SpJSggP-14" style="edgeStyle=orthogonalEdgeStyle;rounded=0;orthogonalLoop=1;jettySize=auto;html=1;entryX=0;entryY=0.5;entryDx=0;entryDy=0;exitX=0.5;exitY=1;exitDx=0;exitDy=0;shape=flexArrow;strokeColor=default;endArrow=block;startArrow=block;" edge="1" parent="GyxaVA42h4HH-SpJSggP-10" source="GyxaVA42h4HH-SpJSggP-5" target="GyxaVA42h4HH-SpJSggP-12">
          <mxGeometry relative="1" as="geometry" />
        </mxCell>
        <mxCell id="GyxaVA42h4HH-SpJSggP-19" style="edgeStyle=orthogonalEdgeStyle;rounded=0;orthogonalLoop=1;jettySize=auto;html=1;exitX=0.75;exitY=0;exitDx=0;exitDy=0;entryX=0;entryY=0.75;entryDx=0;entryDy=0;shape=flexArrow;startArrow=block;" edge="1" parent="GyxaVA42h4HH-SpJSggP-10" source="GyxaVA42h4HH-SpJSggP-5" target="GyxaVA42h4HH-SpJSggP-8">
          <mxGeometry relative="1" as="geometry" />
        </mxCell>
        <mxCell id="GyxaVA42h4HH-SpJSggP-5" value="User registration sevice" style="swimlane;whiteSpace=wrap;html=1;" vertex="1" parent="GyxaVA42h4HH-SpJSggP-10">
          <mxGeometry x="30" y="230" width="170" height="100" as="geometry" />
        </mxCell>
        <mxCell id="GyxaVA42h4HH-SpJSggP-2" value="" style="sketch=0;html=1;dashed=0;whitespace=wrap;fillColor=#2875E2;strokeColor=#ffffff;points=[[0.005,0.63,0],[0.1,0.2,0],[0.9,0.2,0],[0.5,0,0],[0.995,0.63,0],[0.72,0.99,0],[0.5,1,0],[0.28,0.99,0]];verticalLabelPosition=bottom;align=center;verticalAlign=top;shape=mxgraph.kubernetes.icon;prIcon=user" vertex="1" parent="GyxaVA42h4HH-SpJSggP-5">
          <mxGeometry x="50" y="30" width="70" height="60" as="geometry" />
        </mxCell>
        <mxCell id="GyxaVA42h4HH-SpJSggP-8" value="Rabbit MQ" style="swimlane;whiteSpace=wrap;html=1;" vertex="1" parent="GyxaVA42h4HH-SpJSggP-10">
          <mxGeometry x="310" y="60" width="170" height="100" as="geometry" />
        </mxCell>
        <mxCell id="GyxaVA42h4HH-SpJSggP-1" value="" style="sketch=0;outlineConnect=0;fontColor=#232F3E;gradientColor=none;fillColor=#E7157B;strokeColor=none;dashed=0;verticalLabelPosition=bottom;verticalAlign=top;align=center;html=1;fontSize=12;fontStyle=0;aspect=fixed;pointerEvents=1;shape=mxgraph.aws4.mq_broker;" vertex="1" parent="GyxaVA42h4HH-SpJSggP-8">
          <mxGeometry x="51.04" y="29" width="68.96" height="61" as="geometry" />
        </mxCell>
        <mxCell id="GyxaVA42h4HH-SpJSggP-16" style="edgeStyle=orthogonalEdgeStyle;rounded=0;orthogonalLoop=1;jettySize=auto;html=1;entryX=1;entryY=0.5;entryDx=0;entryDy=0;exitX=0.5;exitY=1;exitDx=0;exitDy=0;shape=flexArrow;startArrow=block;" edge="1" parent="GyxaVA42h4HH-SpJSggP-10" source="GyxaVA42h4HH-SpJSggP-6" target="GyxaVA42h4HH-SpJSggP-12">
          <mxGeometry relative="1" as="geometry" />
        </mxCell>
        <mxCell id="GyxaVA42h4HH-SpJSggP-20" style="edgeStyle=orthogonalEdgeStyle;rounded=0;orthogonalLoop=1;jettySize=auto;html=1;exitX=0.25;exitY=0;exitDx=0;exitDy=0;entryX=1;entryY=0.75;entryDx=0;entryDy=0;shape=flexArrow;startArrow=block;" edge="1" parent="GyxaVA42h4HH-SpJSggP-10" source="GyxaVA42h4HH-SpJSggP-6" target="GyxaVA42h4HH-SpJSggP-8">
          <mxGeometry relative="1" as="geometry" />
        </mxCell>
        <mxCell id="GyxaVA42h4HH-SpJSggP-6" value="Account&amp;nbsp;sevice" style="swimlane;whiteSpace=wrap;html=1;" vertex="1" parent="GyxaVA42h4HH-SpJSggP-10">
          <mxGeometry x="620" y="230" width="170" height="100" as="geometry" />
        </mxCell>
        <mxCell id="GyxaVA42h4HH-SpJSggP-3" value="" style="outlineConnect=0;dashed=0;verticalLabelPosition=bottom;verticalAlign=top;align=center;html=1;shape=mxgraph.aws3.search_documents;fillColor=#F58534;gradientColor=none;" vertex="1" parent="GyxaVA42h4HH-SpJSggP-6">
          <mxGeometry x="55" y="34" width="60" height="53" as="geometry" />
        </mxCell>
        <mxCell id="GyxaVA42h4HH-SpJSggP-12" value="PostgreSQL" style="swimlane;whiteSpace=wrap;html=1;startSize=23;" vertex="1" parent="GyxaVA42h4HH-SpJSggP-10">
          <mxGeometry x="310" y="350" width="170" height="100.00000000000003" as="geometry" />
        </mxCell>
        <mxCell id="GyxaVA42h4HH-SpJSggP-4" value="" style="image;aspect=fixed;html=1;points=[];align=center;fontSize=12;image=img/lib/azure2/databases/Azure_Database_PostgreSQL_Server.svg;" vertex="1" parent="GyxaVA42h4HH-SpJSggP-12">
          <mxGeometry x="60.999999999999986" y="29.340000000000032" width="50" height="66.66" as="geometry" />
        </mxCell>
        <mxCell id="GyxaVA42h4HH-SpJSggP-18" style="edgeStyle=orthogonalEdgeStyle;rounded=0;orthogonalLoop=1;jettySize=auto;html=1;entryX=0.25;entryY=0;entryDx=0;entryDy=0;" edge="1" parent="GyxaVA42h4HH-SpJSggP-10" source="GyxaVA42h4HH-SpJSggP-17" target="GyxaVA42h4HH-SpJSggP-5">
          <mxGeometry relative="1" as="geometry" />
        </mxCell>
        <mxCell id="GyxaVA42h4HH-SpJSggP-17" value="" style="image;html=1;image=img/lib/clip_art/computers/Laptop_128x128.png" vertex="1" parent="GyxaVA42h4HH-SpJSggP-10">
          <mxGeometry x="33" y="40" width="80" height="80" as="geometry" />
        </mxCell>
        <mxCell id="GyxaVA42h4HH-SpJSggP-22" value="&lt;b style=&quot;border-color: var(--border-color); font-size: 16px; background-color: initial;&quot;&gt;&lt;div style=&quot;border-color: var(--border-color); line-height: 19.2px;&quot;&gt;&lt;b style=&quot;border-color: var(--border-color); background-color: initial;&quot;&gt;User register through user registration service (URS).&amp;nbsp;&lt;/b&gt;&lt;/div&gt;&lt;div style=&quot;border-color: var(--border-color); line-height: 19.2px;&quot;&gt;&lt;b style=&quot;background-color: initial; border-color: var(--border-color);&quot;&gt;URS save user in DB and send event to MQ that user was register to account service(AS).&amp;nbsp;&lt;/b&gt;&lt;/div&gt;&lt;div style=&quot;border-color: var(--border-color); line-height: 19.2px;&quot;&gt;&lt;b style=&quot;background-color: initial; border-color: var(--border-color);&quot;&gt;AS create an account and inform URS about succesful registration through MQ&lt;/b&gt;&lt;/div&gt;&lt;/b&gt;" style="rounded=1;whiteSpace=wrap;html=1;align=left;verticalAlign=middle;horizontal=1;labelPosition=center;verticalLabelPosition=middle;spacingLeft=11;" vertex="1" parent="GyxaVA42h4HH-SpJSggP-10">
          <mxGeometry x="216" y="193" width="386" height="130" as="geometry" />
        </mxCell>
      </root>
    </mxGraphModel>
  </diagram>
</mxfile>
